<?xml version="1.0" encoding="UTF-8"?>
<svg id="Layer_2" data-name="Layer 2" xmlns="http://www.w3.org/2000/svg" viewBox="0 0 120.9 66.86">
  <defs>
    <style>
      .cls-1 {
        fill: #f39e1e;
      }
    </style>
  </defs>
  <g id="Layer_1-2" data-name="Layer 1">
    <path class="cls-1" d="M3.28,12.09c-.29,5.1-.47,10.23-.43,15.32.12,3.44-.05,7.58,1.04,10.7.04.15.2.1-.27-.17-.24-.15-.63-.1-.75-.07,2.56-3.84,6.17-9.45,9.09-13.97,2.78-3.95,5.06-8.21,8.96-11.35.48-.28.94-.69,2.26-.85,1.4-.24,3.29,1.1,3.62,2.39.44,1.26.34,1.78.43,2.82.77,7.75,2.32,18.29,4.85,24.35-.53-.66-2.36-.96-3.19-.5-1.1.54-1.05.81-1.12.79.79-1.39,2.31-4.26,3.08-5.71,3.58-6.69,7.5-13.87,11.54-20.32C46.09,10.27,51.87-1.08,59.58.08c2.06.39,3.68,1.69,4.63,3.28,2.03,3.76,2.92,8.05,4.13,11.9,2.77,9.78,6,19.21,10.48,27.03,3.32,5.53,6.69,9.85,12.44,11.6,10.51,2.29,20.79-.99,28.41-11.03,0,0,.46-.58.77-.46.54.21.45.92.45.92-.86,11.65-11.06,20.71-22.58,22.92-9.27,2.32-20.4-2.36-26.29-9.94-11.45-13.79-12.49-31.85-16.9-47.67-.06-.17.01.02.08.11.06.07.22.34.38.47.55.84,2.76,1.45,3.58,1.02.42-.17.16-.11-.08.07-3.41,2.74-6.11,6.84-8.75,10.46-4.14,5.92-8.43,12.97-12.28,19.2-.98,1.57-2.67,4.4-3.69,5.92-2.13,3.37-6.8,3.27-8.76-.52-1.18-2.19-1.61-4.33-2.11-6.55-1.29-6.55-1.94-13.02-2.21-19.66,0-.62-.06-2.39-.04-3,.02-.15-.03-.26.07,0,.05.09.19.47.63.81.49.42,1.2.56,1.58.51.67-.09.56-.19.5-.13-1.21.79-2.4,2.2-3.46,3.4-4.97,5.84-9.17,12.13-14.03,18.22-.77,1.03-2.46,3.04-4.29,2.17-1.06-.55-1.25-1.19-1.47-1.61-1.28-4.01-.66-8.16-.5-12.21.39-5.16.99-10.27,1.7-15.37l1.3.14h0Z"/>
  </g>
</svg>